<svg width="11" height="11" viewBox="0 0 11 11" fill="none" xmlns="http://www.w3.org/2000/svg">
<path d="M9 5.37006C9.12341 6.2023 8.98125 7.05227 8.59376 7.79907C8.20626 8.54587 7.59314 9.15147 6.84162 9.52973C6.0901 9.90799 5.23844 10.0397 4.40778 9.90599C3.57712 9.77233 2.80976 9.38014 2.21484 8.78522C1.61991 8.1903 1.22773 7.42293 1.09406 6.59227C0.9604 5.76161 1.09206 4.90995 1.47032 4.15843C1.84858 3.40691 2.45418 2.7938 3.20098 2.4063C3.94778 2.0188 4.79775 1.87665 5.63 2.00006C6.47892 2.12594 7.26485 2.52152 7.87169 3.12836C8.47853 3.73521 8.87411 4.52113 9 5.37006Z" stroke="white" stroke-width="2" stroke-linecap="round" stroke-linejoin="round"/>
</svg>
